<svg id="visual" viewBox="0 0 960 540" width="960" height="540" xmlns="http://www.w3.org/2000/svg" xmlns:xlink="http://www.w3.org/1999/xlink" version="1.1"><rect x="0" y="0" width="960" height="540" fill="#081e3d"></rect><defs><linearGradient id="grad1_0" x1="43.8%" y1="0%" x2="100%" y2="100%"><stop offset="14.444444444444446%" stop-color="#081e3d" stop-opacity="1"></stop><stop offset="85.55555555555554%" stop-color="#081e3d" stop-opacity="1"></stop></linearGradient></defs><defs><linearGradient id="grad2_0" x1="0%" y1="0%" x2="56.3%" y2="100%"><stop offset="14.444444444444446%" stop-color="#081e3d" stop-opacity="1"></stop><stop offset="85.55555555555554%" stop-color="#081e3d" stop-opacity="1"></stop></linearGradient></defs><g transform="translate(960, 0)"><path d="M0 405C-24.1 391.1 -48.1 377.3 -74.1 372.7C-100.2 368.1 -128.1 372.7 -150 362.2C-171.9 351.6 -187.7 325.8 -205 306.8C-222.3 287.9 -241.1 275.8 -262.3 262.3C-283.5 248.9 -307.1 234.1 -319.3 213.3C-331.4 192.5 -332.1 165.7 -345.5 143.1C-359 120.5 -385.2 102.2 -397.2 79C-409.3 55.9 -407.1 27.9 -405 0L0 0Z" fill="#2d75e1"></path></g><g transform="translate(0, 540)"><path d="M0 -405C27.5 -404.3 55 -403.6 77.8 -391.3C100.6 -379.1 118.7 -355.2 142.7 -344.6C166.7 -334 196.6 -336.8 216.7 -324.3C236.7 -311.8 246.8 -284 266.6 -266.6C286.3 -249.1 315.6 -242 336.7 -225C357.9 -208.1 370.8 -181.3 371.4 -153.8C372 -126.4 360.3 -98.1 363.9 -72.4C367.4 -46.6 386.2 -23.3 405 0L0 0Z" fill="#2d75e1"></path></g></svg>